<?xml version="1.0" encoding="UTF-8"?><svg id="_レイヤー_2" xmlns="http://www.w3.org/2000/svg" viewBox="0 0 224.21 536.21"><defs><style>.cls-1{fill:#e5d751;}.cls-2{fill:#454545;}.cls-3{fill:#5c9b53;}</style></defs><g id="_レイヤー_2-2"><path class="cls-1" d="M138.79,51.44c-9.11-18.33-22.62-39.15-42.24-46.95-1.33-.53-4.14-.39-4.33-1.77-.64-.17-.24.55-.46.68-.93.58-6.16-1.02-7.79-.29l.39.77-1.52.45c-.12,5.66-2.99,10.88-4.27,16.36-2.25,9.68-4.04,24.59-.18,33.76,3.26,7.76,8.83,15.31,11.98,22.61,3.24,7.5,4.43,14.93,8.32,22.31,2.91,5.52,7.07,10.1,10.43,15.31,1.73.16.04-1.41-.04-1.74-.76-3.1-1.23-6.33-1.94-9.45l1.18.98c.11-.68-1.08-2.43,0-2.75.99,4.98,1.76,10.1,3.91,14.76l.02.57c-.12.13-1.6-.34-1.18.58.36.79,1.02.14,1.46.3.62.23,1.91,3.3,2.66,3.83l-2.45-7.77c.08-1.23-.75-3.46-.52-4.55.1-.47.97,0,.8-.64l-1.2-.23-1.16-7.25c-.87.3-1.63.47-1.56-.78l1.17.39-.39-5.11h.78s1.59,4.95,1.59,4.95l-.8,1.34.78-.2c1.12,7.2,1.54,14.67,5.3,21.02.99-.69.25-.73.12-1.29-.53-2.33-1.4-4.89-1.8-7.25-.62-3.68-.46-7.45-1.27-11.11l1.18-.39-1.17-.6.78-.97-.79-.26-.77-10.75c1.08.19.29,1.65.38,2.09.06.31.65.22.71.45,1.15,4.73,1.06,11.91,1.66,16.9.37,3.1,1.13,6.15,1.57,9.24.67.1.4-.92.4-1.38.09-8.4-.22-16.8-1.2-25.13l1.18-.21,1.18,29.08c1.88-8.38,1.95-17.16,1.55-25.69l.81-.44c-1.8-1.28-.44-6.18-.86-7.48-.07-.22-.66-.12-.66-.36,0-.3.37-.81.28-1.48-.15-1.04-.54-1.95-.69-2.91-.06-.4-.32-1.44.36-1.34,2.33,8.49,2.04,16.91,1.73,25.59-.05,1.51.6,3.5-.54,4.48l.79.37-1.18,4.14,1.46-2.66c.37-1.14-.18-3.97,1.29-4.02l-.8-.6c1.77-2.5.19-14.55,1-15.89.11-.19.5-.51.59-.39.71,7.72.57,16.52-1.78,23.96-.72,2.26-2.79,5.01-1.95,7.09,4.77-5.33,8.53-11.34,11.01-18.07,1.12-3.02,2.01-8.57,2.32-12.13.1-1.15-.94-3.16,1-3.2-.45,1.01.05,1.28.4,2.15l-.79.21c-.17.66.64.2.74.57.21.78-.62,6.59-.86,7.75-.37,1.87-1.08,3.68-1.54,5.53l-3.25,7.36c1.59-1.02,1.63-2.78,2.47-4.21.78-1.33,1.91-2.59,2.65-4.03,3.46-6.72,5.8-14.07,6.47-21.63,1.29-.37.8,1.73.73,2.51-.18,2.22-1.11,6.38-1.58,8.2-.72,2.79-1.11,3.7-2.59,5.87-.06.08.22,1.23-.11,2.06-1.08,2.7-2.54,5.34-3.85,7.54-1.15,1.93-2.33,3.8-3.59,5.65l2.35-2.17c13.92-17.24,15.45-42.71,5.71-62.28ZM116.86,22.52c.16.16.03.73.23.93.22.22,1.75.4,1.86,1.67-.97.76-3.6-2.75-3.93-3.53.28-.25,1.59.67,1.84.93ZM108.98,14.27c1.29.92,2.45,2.86,3.4,3.67,1.02.87,1.83-.2,1.06,1.69l-8.24-6.88c.93-.3,3,.97,3.78,1.53ZM119.94,47.51c.29.58,1.82,2.77.78,3.15-.37-1.29-1.49-2.1-2.25-3.25-6.6-10-10.95-19.61-18.96-28.98-2.28-2.67-4.78-5.18-7.27-7.66.79-.19,2.37.92,2.94,1.38,2.1,1.66,3.35,4.2,5.58,5.62l.51,1.16c6.82,7.94,13.93,19.17,18.67,28.58ZM113.06,29.84l1.11,1.05c2.56,4.34,5.49,8.46,7.53,13.09l-1.96-2.55-6.67-11.59ZM93.79,46.96c-1.07-1.29-2.13-2.62-3.12-3.96-.28-.89,2.32,1.31,2.58,1.55,2.84,2.62,10.48,13.43,11.9,16.97.23.57.56,1.05.44,1.72l-10.89-15.02c.57-.99-.42-.67-.91-1.26ZM99.82,47.62c-1.31-1.71-6.32-6.17-6.79-7.37-.07-.18-.1-.64.19-.58,2.16,1.44,3.76,3.44,5.48,5.34.46.51,1.08.89,1.52,1.45,3.04,3.84,5.44,8.09,7.67,12.35,1.05,2.01,2.17,4.01,3.21,6.01-.7.14-.99-.34-1.36-.8-1.46-1.81-1.35-3.22-2.23-4.75-1.93-3.36-5.33-8.57-7.68-11.63ZM91.45,22.56l.77-.58c2.57,4.08,6.15,7.58,7.86,12.18l-8.64-11.6ZM92.04,7.82c1.76.45,3.25,1.55,4.73,2.54,2.17,1.45,4.97,3.91,6.72,5.85.57.63,1.56,1.77,1.7,2.61-4.32-3.56-7.94-8.27-13.35-10.22l.2-.78ZM92.91,13.45c.24.3.25.93.69,1.46,2.94,3.51,6.1,6.69,8.79,10.47,1.71,2.41,4.22,6.06,5.5,8.64.28.57.56,1.03.45,1.7l-8.87-12.93c-1.61-2.75-5.05-5.24-6.73-7.62-.32-.46.07-1.58-1.29-2.24.46-.05,1.17.16,1.46.51ZM92.57,18.11c.65,2.08,2.81,3.61,4.15,5.47,1.69,2.35,3.52,5.6,4.77,8.22.18.36-.22.97-.13,1.11.3.49,1.98.63,1.09,2.42-2.21-2.42-3.37-6.06-5.12-8.83-1.8-2.85-4.33-5.5-6.27-8.27l1.51-.13ZM88.95,29.98l2.1,3c-1.97.04-2.41-2.84-4.32-2.75.12-1.77,1.26-1.08,2.22-.25ZM88.69,46.94c-.46-.52-4.73-5.4-4.31-5.7.4-.05.69-.03,1.07.13.09.04,1.26,1.23,1.39,1.3.18.09.62-.29.66-.25.07.07.05.89.4,1.37,3.65,4.99,7.94,9.8,11.39,14.94,3.29,4.89,6.25,10.14,8.65,15.51-1.56.18-1.28-1.52-1.61-2.03-6.27-9.85-9.65-16.29-17.65-25.26ZM106.96,95.85c-.48.18-2.79-8.46-3.41-9.57-.3-.54-.98-.59-1.05-.72-.15-.25.32-.89.16-1.5-.37-1.44-1.64-3.44-2.18-4.92l1.13-.15c1.87,5.18,3.9,10.28,5.47,15.56.12.41.82.95-.13,1.3ZM108.34,88.38l-.78.4c-1.49-5.93-3.36-11.56-6.68-16.71-.06-1.19.43-.27.71.07,1.82,2.19,2.18,3.88,3.35,6.29,1.47,3.01,3.26,6.6,3.93,10.15.15.82.17,1.72.25,2.55-2.15.06-.57-2.44-.79-2.75ZM110.31,83.67c-.74-.81-.41-3.31-.48-3.48-.02-.06-.64-.04-.83-.54-.53-1.42-1.07-3.15-1.45-4.63.59-.68,2.22,2.97,2.36,3.32.41,1.03.75,4.29.89,4.47.15.19,1.73.4-.51.85ZM113.85,74.82l.78-.19c.08,2.63,1.9,4.2,1.97,6.68-1.35,1.52-2.05-6.33-2.74-6.49ZM117.23,90.78c.16-1.89-.56-3.58-.82-5.32-.11-.74-.75-2.98.58-2.58l1.18,8.64-.93-.75ZM121.2,77.7c-.5-1.25-.76-2.61-1.28-3.85-1.38-3.27-3.4-6.3-4.11-9.83,3.47,4.12,4.49,9.6,6.28,14.54-1.11.2-.65-.26-.89-.86ZM120.88,65.51c-2.16-2.16-2.81-5.88-4.05-8.45-.87-1.81-3.13-4.56-3.77-6.59-.06-.2-.11-.64.19-.58,1.02.32,1.01,1.71,1.12,1.87,2.67,3.75,5.78,10.47,7.6,14.95,1.55,3.81,3.05,8.21,3.65,12.25l-4.74-13.45ZM127.36,112.71c-.44.48-1.1.72-1.54,1.21-.28-.79.32-2.17.63-2.92.38-.89.99-1.02,1.03-1.09.39-.84.07-2.34,1.26-4.56.32-.6-.54-1.89,1.59-1.25v-1.18s-1.17.39-1.17.39c-.49-1.02.73-1.24.73-1.35-.1-8.65.15-15.17-2.1-23.81-2.74-10.54-6.36-17.87-11.32-27.21-1.46-2.74-2.66-5.65-4.2-8.35-.02-1.51,1.41,1.15,1.48,1.27,1.82,3.09,3.32,6.22,4.95,9.4,2.91,5.67,5.92,11.47,8.09,17.63,3.18,9.03,5.38,18.93,3.92,28.5.91-.39,1.26-1.77,1.47-2.65.89-3.74.78-8.44.89-12.28.63.06.74,1.7.78,2.16.4,5.82-2.58,21.84-6.51,26.09ZM123.86,54.99c.84.08,5.79,13.67,6.09,15.71-1.01.19-.7-.18-.97-.78-1.58-3.5-4.24-9.61-5.33-13.16-.12-.39-.65-1.85.21-1.77ZM134.27,89.95c.19-.46.36-.83.4-1.36.41-5.21-1.72-13.84-2.94-19.08-.31-1.32-.97-2.8-1.38-4.12l.78-.19,4.23,17.18c.26,1.99-.1,2.3.44,3.83.15.42-.52,2.97.05,3.74h-1.57ZM138.19,93.49l-.79-.6c.33-3.16.73-7.01.65-10.14-.44-17.51-9.86-38.82-21.09-51.99-1.22-2.86-3.46-5.04-5.47-7.42l.77-.58,4.72,5.4c11.3,15.38,20.62,33.4,21.99,52.56.3,4.24.11,8.65-.79,12.76ZM140.95,86.03c-.63.09-.47-1.17-.51-1.64-.36-4.38-.36-8.77-1.46-13.09h.79c-.66,2.13,1.18,5.11,1.18,7.07v7.66ZM141.73,83.67c.93-5.89-.25-11.85-1.18-17.68.67.09.77,1.48.91,2.03,1.31,5.04,1.68,9.71,1.31,14.88l-1.04.77Z"/><path class="cls-1" d="M49.03,17.91c.27,1.1-.05,3.11.2,4.46.11.59,1.73,6.58,2.94,5.49-2.02-1.63-.04-2.02-.17-3.74-.04-.58-.57-2.36-.72-2.55-.1-.12-.57-.01-.28-.78l.77-.02c-1.37-1.88-1.43-4.4-1.56-6.66-.56.32-1.97,2.99-1.98,3.33,0,.22.73.15.8.46Z"/><path class="cls-1" d="M94.43,98.02c-8.66-8.28-2.64-16.56-5.65-22.96-3.01-6.4-15.44-26.73-18.07-33.13-.67-1.62-1.61-3.39-3.07-5.13.19.11.4.1.63-.08l-8.22-22.04.76-.55c-1.53-.5-2.36-3.55-2.74-5.11,2.12,2.39,3.65,5.96,4.99,8.95,2.7,6.05,4.82,12.37,7.19,18.55l1.43-1.77c-4.61-7.74-7.47-16.47-10.46-24.95,2.62,2.74,3.6,6.8,5.46,10.07l-.75.93,1.22.25c.66,1.42,4.69,10.82,5.27,11.15.17.1.67.08.58-.19l-2.38-6.66.81-.22c.11-.57-.69-.4-1.13-1.02-1.83-2.57-2.84-7.63-3.61-10.56-.16-.61-.2-.73.04-1.38.7-.12.21.67.5,1.07,1.37,1.92,1.73,3.46,2.75,5.7,1.29,2.86,3.52,5.44,3.43,8.94l.51-3.06c-2.57-4.93-3.79-10.26-5.12-15.61l.67-.57,5.12,13.75c.61.1.62-1.31.57-1.63-.29-1.86-3.61-10.02-2.92-10.95,2.54,1.13,2.41,5.55,4.31,7.47.59-1.95-.7-10.04-2.22-10.94-1.04-.61-7.96-2.51-8.93-2.33-3.03,2.45-4.38,6.03-8.88,3.84-.07.98.26,1.9.5,2.83,2.18,8.37,5.63,16.41,9.37,24.03.17.35.41.96.69,1.44-.92-1-2.03-1.97-3.37-2.9-4.05-7.99-6.4-16.92-7.59-25.79l-3.53,2.55.79.44-.07,1.26-1.11.45c-.37-.94,2.04-1.14.2-1.57l-1.79,1.78c1.34,2.68,1.92,6.3,1.59,9.22,2.28-.5.89,4,3.14,4.33l-.78.39.78.39v.78s-.75.17-.75.17l.25,1.51c-5.08-1.52-11.76-2.53-20.61-2.66-16.56,39.53,18.45,86.59,27.48,94.49,9.04,7.91,31.62,11.67,52.71,6.02,0,0-11.29-20.71-19.95-28.99ZM55.32,29.3l.77-1.03c-.02.3.61,1.12,1.23,1.72-.64-.24-1.3-.47-2-.69ZM58.31,30.37c-.27-.44-.62-.81-.84-1.31-.45-1.04-2.65-6.72-2.77-7.45-.09-.54.99-1.49.61-2.38h-1.56c-.04-.76,1.2,0,.45-.98l.72-.19c2.61,3.96,2.44,8.93,5.36,12.92l.74.65c-.83-.43-1.72-.85-2.7-1.25Z"/><path class="cls-1" d="M77.64,7.89c.62.37.44,3.8.45,4.66l-1.97-4.51,1.52-.14Z"/><path class="cls-3" d="M52.16,286.83c3.06,11.66,8.25,22.49,13.93,33.05,8.34,15.51,19.42,31.19,26.84,47.38,6.51,14.19,10.26,30.33,13.43,44.83l1.19,4.41c.24-3.03-.35-5.92-.73-8.89-.44-3.37-.97-7.03-1.78-10.48-.27-1.17-.96-2.86-1.41-4.03l.78-.57c-.51,0-.87-.2-1.1-.67-1.54-3.07-2.35-9.35-3.48-12.7-5.03-15-13.78-29.47-20.93-43.12-7.06-13.48-15.15-26.78-19.66-41.37.36,0,.56.36.73.64,2.47,4.03,4.02,9.98,6.06,14.37.97,2.08,2.16,4.16,3.21,6.22,7.33,14.43,16.26,28.06,23,42.81.69.1.4-.9.3-1.28-.62-2.35-2.85-6.99-3.95-9.41-1.28-2.82-3.08-5.48-4.21-8.38l.67-.83c6.24,13.65,11.82,26.71,16.75,42.27.76,2.4,1.27,5.02,1.83,7.5l.77-.19c-1.02-2.61-1.11-5.45-1.66-8.16-.25-1.2-.82-2.58-1.04-3.35-.38-1.3-.5-2.33-.04-3.63l-1.1-.26c-3.89-16.3-10.46-31.7-17.07-47.03-.51-1.18-.86-1.59-1.17-2.31-1.25-2.85-2.19-6.37-3.48-9.01-.19-.39-2.85-2.77-.75-2.68,2.4,4.39,4.36,8.83,6.48,13.37,8.99,19.29,18.88,43.75,20.66,65.41.18,2.14-.03,1.43.43,3.1,1.21,4.37,1.96,9.5,2.29,14l.58-.97c-.5-4.46-1.33-8.92-1.79-13.39-.23-2.22-.23-1.25-.59-2.89-.33-1.5-.08-3.09-.29-4.44-1.65-10.48-4.37-22.34-7.62-32.45-2.88-8.95-7.15-17.37-10.33-26.21l1.15-.17c7.17,15.87,13.26,32.26,16.82,49.39,1.58,7.6,3.13,17.26,3.08,24.98,0,.54-.74.75.56.65.66-13.37-1.98-26.32-4.71-39.29l1.59.25c1.93,9.37,3.35,18.87,3.92,28.43.58-.08.65-1.7.73-2.21,1.2-8.2.6-20.19.06-28.65-.49-7.61-1.8-15.24-3.17-22.75l.8-.6c-.54.07-.65-.08-.85-.54-1.73-4.03-2.81-14.24-3.97-19.2-6.53-27.94-15.87-54.4-33.11-77.29-4.15-5.51-8.76-10.88-13.32-16.15-1.47-1.7-5.6-5.24-6.51-6.85-.44-.77-.44-1.34-.37-2.19-.08-.1-.69.25-.97.19-.73-.14-6.31-5.44-7.49-6.46-3.89-3.36-8.59-7.7-13.18-10.79-.61-.41-1.97-1.46-2.71-1.22l27.89,27.9c-1.25.83-1.56-.78-2.1-1.24-8.95-7.73-16.62-16.63-25.15-24.74-4.75-4.52-7.79-6.71-13.33-10.05-1.29-.78-2.46-1.84-3.69-2.6-.34-.21-1.01-.84-1.3-.27,1.83,1.58,4,2.84,5.19,5.03.33.61.26,1.97.9,2.24l.58-1.17c3.7,6.25,8.06,12.16,11.47,18.59,19.85,37.51,15.13,81.15,38.5,116.71l21.53,34.26-.78.97c.5,0,.98.04,1.38.39.23.2,2.58,4.48,3.01,5.25,1.08,1.95,1.74,4.15,3.05,6.01l-.75.93c1.74-.16,2.66,3.23,3.35,4.73.29.63.47,1,.74,1.57.44.94.43,2.25,1.41,2.74-.83-3.34-2.21-6.53-3.43-9.74-4.27-11.27-10.77-22.48-17.07-33.21-.83-1.41-3.2-4.23-3.67-5.4-.38-.95.99-1.83-.59-1.38-2.89-5.09-5.91-10.09-8.71-15.24-.97-1.78-2.34-3.99-3.35-6.06-1-2.04-1.55-4.3-2.85-6.19l.78-.58-1.22-.24c-1.92-6.05-4.8-11.91-6.15-18.13-.09-.4-.4-1.38.3-1.28ZM85.02,338.75l-1.03.35c-4.16-11-10.23-21.23-14.93-32.03-.93-2.15-2.79-6.02-3.38-8.06-.2-.69.23-1.4.17-1.51-.05-.09-.75-.16-1.03-.71-.86-1.69-1.88-4.54-2.63-6.42-4.46-11.26-8.08-22.62-11.4-34.17-.57-2-.92-4.06-1.38-6.09.39-.62.49.29.61.56.43.94.76,1.91,1.1,2.88,3.79,10.57,7.06,22.89,11.17,33.57.85,2.22,2.4,5.61,2.98,7.68.24.87-.12,1.74-.07,1.82.04.07.81.25,1.21.94,3.8,6.57,7.28,16.74,10.62,23.96,2.78,5.99,5.44,11.67,7.99,17.26ZM49.42,240.07l4.78,9.95,2.67,7.34-6.75-14.27-.71-3.02ZM60.42,270.32l5.4,11.69c1.86,6.39,5.12,12.41,6.38,18.96l-10.11-25.05-1.67-5.6ZM79.47,307.65c-.77-2.28-1.93-4.41-2.75-6.68-.78-2.16-.84-1.7-1.62-3.24-.44-.87-2.11-6.09-2.41-7.27-.11-.42-.12-.85-.08-1.28.69-.13.24.68.51,1.05.39.53.83.57,1.34,1.61,2.34,4.79,3.36,10.53,5.99,15.23l-.97.58ZM87.55,326.88l-6.71-16.87c.86-.17.89.42,1.19.96.61,1.1,1.51,3.4,2.02,4.66.71,1.79,1.92,3.88,1.5,5.77l.76-.38c.58.41,1.1,3.62,1.34,4.22.06.16,2.63,1.85-.11,1.64ZM104.81,362.67l-6.32-24.94.81-.61h-1.18s.79-1.18.79-1.18l-1.19-.25c-1.98-8.38-5.14-16.77-8.05-24.91-.36-1.01-.55-1.21-.81-1.91-.64-1.73-3.18-7.68-3.25-8.96-.03-.65.51-1.01,1.12-.91,1.97,6.19,4.73,12.11,6.85,18.28.38,1.09.51,2.71.86,3.76,4.57,13.66,9.45,27.31,11.53,41.62h-1.17ZM105.49,343.71c2.61,11.54,4.45,23.64,4.82,35.45l-3.53-27.24c-.06-.31-.64-.26-.68-.47-2.85-12.8-6.7-25.38-11.1-37.73l1.18-.19c.42-1-.71-.71-.8-.98-.23-.66-.06-1.21.79-.99,3.07,10.73,6.86,21.22,9.33,32.13ZM90.67,284.66c1.57,4.17,2.64,8.58,4.08,12.68,1.46,4.16,3.88,9.15,5.3,13.38.21.63,1.04,3.28-.35,2.83l-11.78-34.97c1.34,1.58,2.01,4.1,2.75,6.08ZM73.32,252.89c2.19,3.12,3.47,7.61,4.97,11.14,1,2.34,1.8,4.8,2.68,6.99.03.06.49.07.62.39,4.91,12.42,9.01,25.2,13.39,37.81h-1.55s-10.83-33-10.83-33l-10-23.4c-.08-1.15.47-.31.72.06ZM72.6,262.26c1.55,3.5,3.1,7.61,4.5,11.22,1.5,3.86,3.01,7.79,4.14,11.77-.5.06-.72-.8-.88-1.18-3.25-7.71-6.25-15.63-8.93-23.57.58.1.96,1.26,1.18,1.76ZM50.2,226.31l13.91,20.08.62,1.53-14.78-20.18-.54-1.43h.78ZM21.32,198.42c-.44-.53-3.64-4.4-3.33-4.72.59.32,1.25.75,1.72,1.22,3.63,3.56,14.19,14.32,15.56,18.43,1.67,1.12,2.18,1.79,3.53,3.35,3.83,4.46,6.96,9.91,10.61,14.54l-.59.27-.19.71,1.51.06c6.64,11.09,12.93,22.39,18.29,34.17,3.99,8.78,7.75,17.81,10.45,27.07-.68-.11-.69-.78-.89-1.27-.76-1.88-1.31-3.82-2.14-5.7-.42-.96-1.94-1.75-.9-3.64l-.98.04-7.37-17.92-3.04-5.51c2.23-1.06.11-.75,0-.81-.89-.51-4.2-7.97-5.03-9.47-4.94-8.9-10.36-17.51-16.26-25.78-2.26-3.17-5.81-6.51-7-10.1-3.05-2.06-11.08-11.46-13.95-14.93ZM42.74,231.81c-1.91-1.87-3.51-4.53-4.31-7.07,1.76,1.96,3.4,4.64,4.31,7.07ZM50.39,272.48c-3.3-9.37-5.04-19.52-8.03-29.06-1.61-5.13-4.06-10-5.52-15.14l2.94,5.51c4.78,12.71,7.55,26.16,11.31,38.99,1.34,4.57,3.19,8.99,4.21,13.66-.66-.11-.7-.77-.89-1.26-1.52-4.01-2.9-8.57-4.02-12.69Z"/><path class="cls-3" d="M217.15,139.86c-1.63.36-.77.83-1.09,1.43-8.07,15.24-15.11,26.46-20.77,42.86-6.81,19.72-12.75,39.43-22.56,58.04l-1.54,1.01.74.03v.51c-7.02,15.67-13.42,31.61-18.77,47.94l-1.22.25.81.61c-5.03,16.83-13.55,32.35-17.7,49.49-2.05-.32.12.71-.02,1.16-2.03,3.52-1.73,8.51-3.52,12.21.32.59.94-.08,1.2-.4.51-.64.4-1.85.6-2.47.58-1.79,1.15-3.42,1.69-4.99,4.92-14.12,10.53-27.95,17.74-41.05l.75.38c.64-3.26,2.18-6.56,3.81-9.44.13-.23.66-.3.76-.47.19-.32-.03-.98.67-1.75.13-.14,1.3-1.01,1.04.06-10.72,21.47-21.74,43.08-28.48,66.22-1.56,5.36-2.21,11.04-4.11,16.32l.78.19c-.41-.89.7-1.24.71-1.37.42-4.31,3.12-11,4.78-15.34,3.01-7.89,6.69-15.55,9.84-23.37l1.17.39c.17-.14-.71-.7-.71-1.29,0-1.06,4.38-9.81,5.27-10.85.21-.24.61-.43.94-.43l-.78-.58c8.09-14.57,15.55-29.6,22.19-45,1.92-4.47,3.26-9.41,5.41-13.84.31-.64,2.07-4.17,2.23-4.35.36-.41,1.1-.37,1.59-.66.32.35-3.65,7.64-4.12,8.65-.59,1.27-.45,3.53-2.16,3.14l.19.72c.43-.41.82-.46.59.26-2.41,7.56-6.89,16.58-10.32,23.86-11.36,24.1-23.33,45.88-32.51,71.22-1.58,4.37-2.99,11.55-4.79,15.27-.28.58-1.01.58-1.1.94-.15.63.14,1.52-.02,2.25-.18.83-.58,1.58-.73,2.42-.07.39-.31,1.45.36,1.34,2.82-9.26,5.93-18.48,9.76-27.38,1.36-3.16,11.11-25.02,12.29-25.85.31-.22.77-.22,1.14-.22.37-1.52-.89.25-.78-.97,6.73-13.38,14.5-26.36,20.03-40.28l.63,1.19c-9.09,20.37-19.8,39.92-28.99,60.23-1.36,3.02-3.08,8.31-4.66,10.98-.17.29-.45.35-.76.3l.78.58-1.57,2.35,1.18.79c-2.68,3.49-3.44,7.79-5.88,11.41-.07,1.16.45.33.72-.07.61-.91,1.11-2.09,1.69-3.04.27-.44.9-.56,1-.72.08-.12.4-2.15.91-2.67l.78.2c.15,1.2-3.65,7.19-4.47,8.89-1.44,2.99-3.83,7.74-4.47,10.86-.06.31-.29,1.31.3.68.86-2.15,1.6-4.34,2.61-6.43,3.91-8.12,9.06-15.28,14.28-22.54,2.33-3.25,4.84-7.04,7.48-10.32.96-1.2,2.88-4.2,4.31-3.35.22-1.05-.23-.58-.78-.98,1.7-1.8,2.95-4.03,4.47-5.95,25.1-31.7,38.66-54.41,47.14-94.8,7.36-35.05,1.37-73.88,10.17-108.59.22-.86,2.05-5.57,1.86-5.8ZM201.15,179.45c.58-4.01,2.06-8.1,2.84-12.08.92.64.42.77.27,1.43-1,4.36-1.79,8.76-2.83,13.1-.79-.1-.36-1.94-.29-2.45ZM195.2,244.63c1.8-8.44,4.09-17.06,5.42-25.62,1.32-8.51,1.73-17.18,2.98-25.7.83.52.35.9.34,1.47-.45,14.59-2.92,30.73-6.14,44.98-.62,2.76-1.51,5.57-2.65,8.16-.72-.28-.09-2.66.05-3.29ZM197.9,256.57l-.3-1.28,1.87-6.18c.55,2.48-1.24,5-1.57,7.46ZM164.97,281.19c-.95,2.23-2.04,5.03-3.6,6.81,1.33-4.41,3.89-8.38,5.27-12.77.13-.42-.58-.95.61-.59-.19,2.22-1.41,4.47-2.29,6.55ZM168.48,262.78c-.77,1.64-1.61,3.41-2.01,5.19l-.78-.4c.68,1.63-.53,2.93-1.19,4.43-4.02,9.14-7.73,19.72-12.1,29.24-.27.6-.65,1.88-1.24,2.09.44-2.21,1.42-4.81,2.28-6.95,2.57-6.44,5.72-13.02,8.28-19.3,1.8-4.42,2.73-8.92,5.44-12.73.16-.23-1.03-.95.88-.71l-.75-.93c1.99-4.54,3.95-9.09,5.97-13.61.4-.89-.27-1.85,1.46-1.57l-.78-.57c1.93-2.58,3.07-8.62,4.92-10.85.18-.22,2.4.08.18-.95,6.26-11.66,10.12-24.33,14.54-36.75l.21,1.19-5.33,17.28-.77-.4c0,.58.39,1.08.32,1.68-.53,4.3-5.92,13.33-7.86,17.7-3.95,8.91-7.61,18.23-11.67,26.91ZM194.37,208.63c-.58,4.03-2.11,8.19-3.42,12.09-2.33,6.91-5.14,13.66-7.58,20.52l-.77-.19,11.78-32.42ZM177.28,257.35c-.4.98-.92,2.52-1.76,3.15l.49-2.06,3.43-7.76c-.54,2.2-1.3,4.59-2.16,6.67ZM179.45,261.28l9.79-24.48,1.2-.66c.2.8-.29,1.25-.56,1.83-1.24,2.66-2.75,7.32-3.94,10.35-1.61,4.12-3.3,8.19-4.89,12.32l-1.6.65ZM179.13,272.57c.62-2.16,2.18-5.23,3.11-7.44.26-.61.5-1.29.81-1.97.96-2.16,2-4.81,3.46-6.59l-7.07,17.29c-.69.11-.41-.92-.3-1.29ZM177.07,292.02c2.11-6.13,4.64-11.09,7.28-16.98,1.05-2.33,2.06-6.11,3.26-8.14.48-.81.6-1.06,1.65-.9l-12.96,28.29c-.48-1.24.68-2.03.77-2.27ZM172.5,304.25l1.05.06-6.68,11.99-.78-.78c.05.68.3,1.13.09,1.84-.76,2.52-4.43,7.63-5.8,10.32-2.81,5.5-5.05,11.3-8.48,16.47l-.73-.35c.33,1.39,0,3.31-1.58,2.36,6.97-14.34,14.32-28.46,22.91-41.91ZM136.21,369.52c3.08-6.95,8.4-13.42,11.34-20.48l2.03-2.48.19,1.54-13.35,22.82c-.89-.67-.54-.66-.22-1.39ZM151.1,352.6c-3.81,6.37-7.62,13.91-12.45,20.13-.26.33-3.08,4.72-3.6,4.08.04-1.17.61-2.65,1.96-2.36l-.78-.78c.34-.35,1.83-.76,1.91-.83.05-.04-.27-.66.09-1.25,12.81-21.81,26.58-43.29,38.59-65.59,1.58-2.94,3.1-6.24,4.85-9.26,3.56-6.18,5.98-15.23,9.66-22.1l3.04-9.42c.73-.09.31.8.21,1.2-1.43,5.92-4.12,12.78-6.69,18.3-1.78,3.84-3.81,9.8-6.08,14.5-8.86,18.37-20.27,35.9-30.71,53.38ZM169.08,330.3c-1,1.36-2.65,2.53-3.27,4.37l-5.62,7.17c.48-1.98,2.17-4.14,3.37-5.86,2.94-4.19,6.28-8.16,9.37-12.24.94-1.25,1.33-2.39,2.6-3.65.42-.41.4.08.76.34-2.8,2.99-4.81,6.6-7.21,9.88ZM203.69,250.76c-.09.82-.3,1.85-.46,2.68-1.17,5.94-2.88,12.56-4.7,18.32-2.43,7.69-6.3,16.89-10.1,24.64-2.73,5.56-5.91,11.55-9.76,16.36,2.14-4.79,5.16-9.18,7.52-13.89,4.42-8.79,8.46-19.2,11.73-28.74,1.49-4.35,2.7-9.26,3.69-13.19.63-2.47,1.55-4.88,1.8-7.45.73-.08.32.83.28,1.26ZM208.53,181.7c-1.93,18.54-1.7,35.51-5.71,54.04-.68,3.15-1.42,6.84-2.28,9.9-.11.4-.1,1.19-.66,1.1,3.27-14.68,4.83-29.61,6.28-44.6.88-9.12.62-20.39,2.74-29.1.16-.67-.39-1.14.79-.95.3,3.28-.82,6.4-1.16,9.62ZM203.79,187.41c-.68-.02-.83.26-.7-.5.64-3.81,1.31-7.73,2.06-11.51,1.13-5.71,2.36-13,4.34-18.64.23-.67.66-1.69,1.37-1.97l-7.07,32.62Z"/><path class="cls-3" d="M141.72,262.72l.79-.64-.8-.22c1.45-9.27.84-18.66,1.49-27.99-.11-2.02-.79-12.82-.19-13.77.12-.19.75.09.69-.27l-.8-.45c-.05-8.4-.8-16.78-1.96-25.06-.96-6.85-2.22-13.57-3.64-19.96-1.53-6.88-3.38-14.05-5.6-20.73-.66-1.98-1.54-4.27-2.53-6.11l1.17-.58c-.43-.01-.89.13-1.22-.25-.43-.51-3.46-8.9-3.89-10.16-.75-2.22-1.83-5.22-2.25-7.57-.17-.95-.11-1.9-.1-2.84-1.68.61-3.22,1.77-4.94,2.33-1.37.45-2.52-.19-3.3,1l2.76,3.94c2.72,4.14,5.09,9.31,6.85,13.92.5,1.3,2.4,5.41,2.2,6.45l-.81.63,1.56.59-.78.97c1.84.3,1.63,2.83,2.17,4.33,5.05,14.04,8.25,33.18,9.6,48.15.28,3.12.23,6.28.84,9.37l-.82.62c1.14-.09,1.13,3.76,1.18,4.89.82,21.03-1.72,46.83-4.9,67.03-4.83,30.76-11.14,61.57-16.77,91.69-2.86,15.28-6.3,31.35-7.79,46.83-1.25,13-.59,26.46-2.78,39.27l.83.44c-.97,19.51-.58,39.63,3.22,58.83.86,4.33,2.31,5.44,6.51,3.75,1.85-1.55-1.88-14.29-2.25-17.06-.76-5.72-1.22-13.44-1.24-19.22,0-1.08-.18-3.41.82-3.54l-.79-.19c.62-2.5-.68-14.82.1-16.04.12-.19.75.09.69-.27l-.76-.36c.21-.37.38-.8.37-1.23-.15-6.42.43-12.88.77-19.24.61-11.46,1.24-22.98,2.37-34.38l.78.4v-1.18s-.78.4-.78.4c-.03-.72,0-1.45.02-2.17.32-9.08,2.77-19.42,3.5-27.87.33-3.87,1.31-7.74,1.88-11.51,4.73-31.08,12.19-61.63,16.94-92.69l1.61-22.29ZM122.29,137.89l-.99-3.53c1.67,1.94,3.05,5.25,3.13,7.86l-2.15-4.33ZM132.9,166.59c-1.99-3.36-3.51-8.04-4.52-11.8.68.11.68.78.89,1.27,1.58,3.72,2.58,7.76,4.61,11.3-1.05.22-.68-.27-.98-.77ZM112.11,445.53l.74-5.05c.8.47.26.87.26,1.4,0,2.52-.06,6.99-.45,9.4-.1.58-.02,1.21-.78,1.37l.23-7.12ZM111.18,496.56c.21-1.07.03-9.33.5-9.33.65,3.22-.01,6.54.19,9.83-.66-.02-.84.27-.69-.49ZM114.6,522.1c.31,1.47,1.62,6,1.58,7-.02.47-.53,1.13-.76.95-2.2-8.21-3.5-16.63-3.54-25.15.65-.1.41.78.49,1.26.32,2.04.18,4.42.45,6.35.2,1.45.95,8.78,1.12,9.22.02.04.6.07.66.37ZM114.24,423.38l-.8,16.3-.62-2.55c.3-10.84,1.9-21.44,3.41-32.18l.74-1.41-2.74,19.85Z"/><path class="cls-2" d="M112.01,10.84c13.36,10.74,21.75,23.11,29.22,38.55,10.86,22.44,9.72,46.35-5.79,66.29-2.5,3.21-7.12,6.5-7.36,10.65-.5,8.58,5.74,21.58,8.44,29.95,8.98,27.82,11.22,57.64,10.75,86.36l-.83.76.8.45c-.6,13.75-1.47,27.95-3.61,41.53-.68,4.3-1.83,8.48-2.56,12.76-1.29,7.61-2.46,15.24-3.66,22.86l3.6-7.2c6.88-14.51,10.88-30.13,16.63-45.06,7.12-18.47,16.41-36.46,23.66-54.92,5.48-13.95,9.6-28.44,14.91-42.44s13.69-29.97,23.69-41.15c.91-1.02,2.21-2.8,3.67-2.54,1.17.38.38,3.02.13,3.98-3.76,14.42-6.51,24.68-8.13,39.8-.42,3.93-.25,11.58-1.18,14.86-.09.31-.51.3-.77.28,1.42,1.36.41,2.35.39,3.73-.72,37.13-2.63,72.53-17.5,107.06-12.18,28.28-35.03,51.29-52.27,76.21-23.72,34.29-26.42,74.35-26.05,115.01l-.82.76.79.19c.08,1.76-.1,3.55,0,5.3.32,5.37.94,11.53,1.57,16.9.51,4.35,3.48,16.4,2.06,19.75-1.31,3.07-7.49,6-10.51,4.03-2.33-1.52-3.4-7.82-3.94-10.6-5.17-26.72-2.51-52.4-2.15-79.16.3-21.89-4.31-44.53-12.77-64.66-10.8-25.72-30.13-45.64-40.84-71.54-7.49-18.1-9.28-32.35-12.88-51.17-4.39-22.93-14.32-43.83-27.47-62.9C9.75,193.37.01,180.76,0,179.67c-.03-2.8,5.48.17,6.74.72,25.55,11.31,53.85,38.94,69.71,61.52,24.75,35.24,35.81,82.75,38.57,125.27l.78,4.52c2.18-11.81,5.05-23.49,7.35-35.28,11.19-57.19,19.41-117.32,2.36-174.24-2.31-7.7-7.02-20-11.66-26.45-4.31-5.99-12.08-3.01-18.69-3.32-24.96-1.15-40-12.64-51.95-33.69-9.08-16-17.83-49.47-11.78-67.03.4-1.16,2.57-6.06,3.32-6.5,1.93-1.13,8.68-.35,11.12-.08-3.4-5.9,4.6-20.59,11.19-20.07.87.07,1.9.84,2.31.76.64-.12,1.22-1.63,1.79-2.15.13-.12,2.1-1.6,2.23-1.68,3.62-2.19,11.18,1.71,14.68,3.48,3.43-6.59,10.56-5.98,16.9-4.52,7.4,1.71,11.49,5.44,17.02,9.89ZM91.77,3.41c-.93.58-6.16-1.02-7.79-.29l.39.77-1.52.45c-.12,5.66-2.99,10.88-4.27,16.36-2.25,9.68-4.04,24.59-.18,33.76,3.26,7.76,8.83,15.31,11.98,22.61s4.43,14.93,8.32,22.31c2.91,5.52,7.07,10.1,10.43,15.31,1.73.16.04-1.41-.04-1.74-.76-3.1-1.23-6.33-1.94-9.45l1.18.98c.11-.68-1.08-2.43,0-2.75.99,4.98,1.76,10.1,3.91,14.76l.02.57c-.12.13-1.6-.34-1.18.58.36.79,1.02.14,1.46.3.62.23,1.91,3.3,2.66,3.83l-2.45-7.77c.08-1.23-.75-3.46-.52-4.55.1-.47.97,0,.8-.64l-1.2-.23-1.16-7.25c-.87.3-1.63.47-1.56-.78l1.17.39-.39-5.11h.78s1.59,4.95,1.59,4.95l-.8,1.34.78-.2c1.12,7.2,1.54,14.67,5.3,21.02.99-.69.25-.73.12-1.29-.53-2.33-1.4-4.89-1.8-7.25-.62-3.68-.46-7.45-1.27-11.11l1.18-.39-1.17-.6.78-.97-.79-.26-.77-10.75c1.08.19.29,1.65.38,2.09.06.31.65.22.71.45,1.15,4.74,1.06,11.91,1.66,16.9.37,3.1,1.13,6.15,1.57,9.24.67.1.4-.92.4-1.38.09-8.4-.22-16.8-1.2-25.13l1.18-.21,1.18,29.08c1.88-8.38,1.95-17.16,1.55-25.69l.81-.44c-1.8-1.28-.44-6.18-.86-7.48-.07-.22-.66-.12-.66-.36,0-.3.37-.81.28-1.48-.15-1.04-.54-1.95-.69-2.91-.06-.4-.32-1.44.36-1.34,2.33,8.49,2.04,16.91,1.73,25.59-.05,1.51.6,3.5-.54,4.48l.79.37-1.18,4.14,1.46-2.66c.37-1.14-.18-3.97,1.29-4.02l-.8-.6c1.77-2.5.19-14.55,1-15.89.11-.19.5-.51.59-.39.71,7.72.57,16.52-1.78,23.96-.72,2.26-2.79,5.01-1.95,7.09,4.77-5.33,8.53-11.34,11.01-18.07,1.12-3.02,2.01-8.57,2.32-12.13.1-1.15-.94-3.16,1-3.2-.45,1.01.05,1.28.4,2.15l-.79.21c-.17.66.64.2.74.57.21.78-.62,6.59-.86,7.75-.37,1.87-1.08,3.68-1.54,5.53l-3.25,7.36c1.59-1.02,1.63-2.78,2.47-4.21.78-1.33,1.91-2.59,2.65-4.03,3.46-6.72,5.8-14.07,6.47-21.63,1.29-.37.8,1.73.73,2.51-.18,2.22-1.11,6.38-1.58,8.19-.72,2.79-1.11,3.7-2.59,5.87-.06.08.22,1.23-.11,2.06-1.08,2.7-2.54,5.34-3.85,7.54-1.15,1.93-2.33,3.8-3.59,5.65l2.35-2.17c13.92-17.24,15.45-42.71,5.71-62.28-9.12-18.33-22.62-39.15-42.24-46.95-1.33-.53-4.14-.39-4.33-1.77-.64-.17-.24.55-.46.68ZM76.52,17.26c.59-1.95-.7-10.04-2.22-10.94-1.04-.61-7.96-2.51-8.93-2.33-3.03,2.44-4.38,6.03-8.88,3.84-.07.98.26,1.9.5,2.83,2.18,8.37,5.63,16.41,9.37,24.03.37.76,1.03,2.73,1.9,2.02l-8.22-22.04.76-.55c-1.53-.5-2.36-3.55-2.74-5.11,2.12,2.39,3.65,5.96,4.99,8.95,2.7,6.05,4.82,12.37,7.19,18.55l1.43-1.77c-4.61-7.74-7.47-16.47-10.46-24.95,2.62,2.74,3.6,6.8,5.46,10.07l-.75.93,1.22.25c.66,1.42,4.69,10.82,5.27,11.15.17.1.67.08.58-.19l-2.38-6.66.81-.22c.11-.57-.69-.4-1.13-1.02-1.83-2.57-2.84-7.63-3.61-10.56-.16-.61-.2-.73.04-1.38.7-.12.21.67.5,1.07,1.37,1.92,1.73,3.46,2.75,5.7,1.29,2.86,3.52,5.44,3.43,8.94l.51-3.06c-2.57-4.93-3.79-10.26-5.12-15.61l.67-.57,5.12,13.75c.61.1.62-1.31.57-1.63-.29-1.86-3.61-10.02-2.92-10.95,2.54,1.13,2.41,5.55,4.31,7.47ZM56.09,7.44l-3.53,2.55.79.44-.07,1.26-1.11.45c-.37-.94,2.04-1.14.2-1.57l-1.79,1.78c1.34,2.68,1.92,6.3,1.59,9.22,2.28-.5.89,4,3.14,4.33l-.78.39.78.39v.78s-.75.17-.75.17l.36,2.19,1.17-1.57c-.04.53,1.99,2.73,2.36,2.35-.27-.57-.72-.96-.99-1.56-.45-1.04-2.65-6.72-2.77-7.45-.09-.54.99-1.49.61-2.38h-1.56c-.04-.76,1.2,0,.45-.98l.72-.19c2.61,3.96,2.44,8.93,5.36,12.92l4.08,3.58c-4.47-8.31-7-17.75-8.25-27.11ZM77.64,7.89l-1.52.14,1.97,4.51c0-.86.17-4.29-.45-4.66ZM51.76,20.78c-1.37-1.88-1.43-4.4-1.56-6.66-.56.32-1.97,2.99-1.98,3.33,0,.22.73.15.8.46.27,1.1-.05,3.11.2,4.46.11.59,1.73,6.58,2.94,5.49-2.02-1.63-.04-2.02-.17-3.74-.04-.58-.57-2.36-.72-2.55-.1-.12-.57-.01-.28-.78l.77-.02ZM107.16,123.36c.19.1.67.84,1.16.78l.61-1.17c.83,1.55,2.08.86,3.07,1.19.11.03,1.46,1.65,1.84.19-8.06-7.58-16.36-16.14-21.39-26.16-2.7-5.38-3.71-10.63-5.53-16.47-.79-2.55-3.2-7.45-3.55-9.43-.11-.6.32-1.43.22-1.59-.02-.04-.62.4-.97.03s-2.93-4.8-3.41-5.66c-3.85-6.8-6.3-15.17-10.76-21.46-6.16-8.69-9.69-9.71-19.03-13.66-1.86-.79-4.36-2.64-6.36-2.99-1.45-.25-3.32.61-4.85-.17l-.39.28c-.2,1.82-1.19,4.27.2,5.72l-1.17.59c.08-1.59-.05-3.19-.15-4.77-.03-.51.61-1.29-.43-1.12-.71,1.02-1.08,3.06-1.16,4.26-.42,6.84.28,17.29,1.17,23.31,2,13.42,7.63,29.35,13.63,41.3.69,1.38,1.38,3.12,1.86,4.61-.94-.49-1.5-1.61-2.03-2.49-5.2-8.69-9.35-20.49-12-30.44-2.84-10.65-4.21-21.66-4.04-32.7l-1.17,6.49v3.48s-.79.45-.79.45l.8.45c-.79,5.2,1.37,9.96,1.97,14.9.11.93-.32,1.43-.37,1.97-.02.19.73,0,.79.74s-.45,2.04-.39,2.13c.11.15.88.11,1.07.68.21.61-.05,1.5.14,2.22,1.27,4.59,2.43,9.22,3.99,13.74,5.79,16.75,18.41,36,35.69,42.47,1.24.46,2.55.68,3.79,1.11l.05,1.52,1.16-.41-.38-.76c.3-.22,6.21,1.36,7.32,1.52,1.63.23,7.76.2,8.38.66.39.29.29.97.61.97.99-1.78,4.36-.97,6.14-1.02.36,0,1.25,0,1.13-.55-1.6-.32-3.71-.17-5.21-.49-9.97-2.14-21.8-9.17-28.17-17.01-2.32-2.85-4.14-6.32-6.68-9.03l.97-.59c6.18,9.19,15.71,17.63,25.99,22.35,2.92,1.34,7.03,2.92,10.13,3.62,1.95.44,4.11.77,6.11.75-.7-1.19-2.52-.86-3.69-1.19-22.23-6.32-36.79-21.07-45.04-43l-2.54-9.25c2.42,4.36,3.65,9.75,5.8,14.24,6.56,13.72,19.11,28.86,33.67,34.31.36.14,1.28.51,1.19-.21-3.39-1.63-6.55-3.72-9.57-5.97-.63-.46-1.41-1.03-2-1.5-2.09-1.66-3.88-3.66-6.05-5.18l.34-1.1-1.14.36c-.79-2.13-2.44-3.33-3.74-5.11-4.11-5.65-6.93-11.55-10-17.58-.13-.26-.83-1.51.14-1.24,2.76,4.22,4.69,9.04,7.51,13.31,6.44,9.76,17.54,19.97,28.16,24.88,1.27.58,9.34,4.08,9.98,4.17.33.04,2.88-.13,2.46-.9s-7.99-3.36-9.42-3.35c1.33-1.2.57-2.63-.2-.78-.53-1.48-1.1-.81-1.29-.92-7.37-4.24-13.18-10.7-18.56-17.65-.19-.24-.46-.36-.77-.3l1.56-1.17.6,1.17.58-.78c-.44,1.47.48,1.42.77,1.87,2.49,3.91,6.56,7.97,10.03,11.08,1.39,1.25,3.29,2.59,4.89,3.58l-.36,1.14c2.28-1.02,4.76,1.59,7.07,2.75,0-1.15-1.61-1.22-2.55-1.97-.86-.68-1.56-1.72-2.52-2.59-.62-.56-.34-.43.17-.95l6.08,4.33c.12.75-.45,1.29-1.18,1.17ZM122.87,126.11c-1.68.61-3.22,1.77-4.94,2.33-1.37.45-2.52-.19-3.3,1l2.76,3.94c2.72,4.14,5.09,9.31,6.85,13.92.5,1.3,2.4,5.41,2.2,6.45l-.81.63,1.56.59-.78.97c1.84.3,1.63,2.83,2.17,4.33,5.05,14.04,8.25,33.18,9.6,48.15.28,3.12.23,6.28.84,9.37l-.82.62c1.14-.09,1.13,3.76,1.18,4.89.82,21.03-1.72,46.83-4.9,67.03-4.83,30.76-11.14,61.57-16.77,91.69-2.86,15.28-6.3,31.35-7.79,46.83-1.25,13-.59,26.46-2.78,39.27l.83.44c-.97,19.51-.58,39.63,3.22,58.83.86,4.33,2.31,5.44,6.51,3.75,1.85-1.55-1.88-14.29-2.25-17.06-.76-5.72-1.22-13.44-1.24-19.22,0-1.08-.18-3.41.82-3.54l-.79-.19c.62-2.5-.68-14.82.1-16.04.12-.19.75.09.69-.27l-.76-.36c.21-.37.38-.8.37-1.23-.15-6.42.43-12.88.77-19.24.61-11.46,1.24-22.98,2.37-34.38l.78.4v-1.18s-.78.4-.78.4c-.03-.72,0-1.45.02-2.17.32-9.08,2.77-19.42,3.5-27.87.33-3.87,1.31-7.74,1.88-11.51,4.73-31.08,12.19-61.63,16.94-92.69l1.61-22.29.79-.64-.8-.22c1.45-9.27.84-18.66,1.49-27.99-.11-2.02-.79-12.82-.19-13.77.12-.19.75.09.69-.27l-.8-.45c-.05-8.4-.8-16.78-1.96-25.06-.96-6.85-2.22-13.57-3.64-19.96-1.53-6.88-3.38-14.05-5.6-20.73-.66-1.98-1.54-4.27-2.53-6.11l1.17-.58c-.43-.01-.89.13-1.22-.25-.43-.51-3.46-8.9-3.89-10.16-.75-2.22-1.83-5.22-2.25-7.57-.17-.95-.11-1.9-.1-2.84ZM157.98,349.06c25.1-31.7,38.66-54.41,47.14-94.8,7.36-35.05,1.37-73.88,10.17-108.59.22-.86,2.05-5.57,1.86-5.8-1.63.36-.77.83-1.09,1.43-8.07,15.24-15.11,26.46-20.77,42.86-6.81,19.72-12.75,39.43-22.56,58.04l-1.54,1.01.74.03v.51c-7.02,15.67-13.42,31.61-18.77,47.94l-1.22.25.81.61c-5.03,16.83-13.55,32.35-17.7,49.49-2.05-.32.12.71-.02,1.16-2.03,3.52-1.73,8.51-3.52,12.21.32.59.94-.08,1.2-.4.51-.64.4-1.85.6-2.47.58-1.79,1.15-3.42,1.69-4.99,4.92-14.12,10.53-27.95,17.74-41.05l.75.38c.64-3.26,2.18-6.56,3.81-9.44.13-.23.66-.3.76-.47.19-.32-.03-.98.67-1.75.13-.14,1.3-1.01,1.04.06-10.72,21.47-21.74,43.08-28.48,66.22-1.56,5.36-2.21,11.04-4.11,16.32l.78.19c-.41-.89.7-1.24.71-1.37.42-4.31,3.12-11,4.78-15.34,3.01-7.89,6.69-15.55,9.84-23.37l1.17.39c.17-.14-.71-.7-.71-1.29,0-1.06,4.38-9.81,5.27-10.85.21-.24.61-.43.94-.43l-.78-.58c8.09-14.57,15.55-29.6,22.19-45,1.92-4.47,3.26-9.41,5.41-13.84.31-.64,2.07-4.17,2.23-4.35.36-.41,1.1-.37,1.59-.66.32.35-3.65,7.64-4.12,8.65-.59,1.27-.45,3.53-2.16,3.14l.19.72c.43-.41.82-.46.59.26-2.41,7.56-6.89,16.58-10.32,23.86-11.36,24.1-23.33,45.88-32.51,71.22-1.58,4.37-2.99,11.55-4.79,15.27-.28.58-1.01.58-1.1.94-.15.63.14,1.52-.02,2.25-.18.83-.58,1.58-.73,2.42-.07.39-.31,1.45.36,1.34,2.82-9.26,5.93-18.48,9.76-27.38,1.36-3.16,11.11-25.02,12.29-25.85.31-.22.77-.22,1.14-.22.37-1.52-.89.25-.78-.97,6.73-13.38,14.5-26.36,20.03-40.28l.63,1.19c-9.09,20.37-19.8,39.92-28.99,60.23-1.36,3.02-3.08,8.31-4.66,10.98-.17.29-.45.35-.76.3l.78.58-1.57,2.35,1.18.79c-2.68,3.49-3.44,7.79-5.88,11.41-.07,1.16.45.33.72-.07.61-.91,1.11-2.09,1.69-3.04.27-.44.9-.56,1-.72.08-.12.4-2.15.91-2.67l.78.2c.15,1.2-3.65,7.19-4.47,8.89-1.44,2.99-3.83,7.74-4.47,10.86-.06.31-.29,1.31.3.68.86-2.15,1.6-4.34,2.61-6.43,3.91-8.12,9.06-15.28,14.28-22.54,2.33-3.25,4.84-7.04,7.48-10.32.96-1.2,2.88-4.2,4.31-3.35.22-1.05-.23-.58-.78-.98,1.7-1.8,2.95-4.03,4.47-5.95ZM26.88,198.96c-4.75-4.52-7.79-6.71-13.33-10.05-1.29-.78-2.46-1.84-3.69-2.6-.34-.21-1.01-.84-1.3-.27,1.83,1.58,4,2.84,5.19,5.03.33.61.26,1.97.9,2.24l.58-1.17c3.7,6.25,8.06,12.16,11.47,18.59,19.85,37.51,15.13,81.15,38.5,116.71l21.53,34.26-.78.97c.5,0,.98.04,1.38.39.23.2,2.58,4.48,3.01,5.25,1.08,1.95,1.74,4.15,3.05,6.01l-.75.93c1.74-.16,2.66,3.23,3.35,4.73.29.63.47,1,.74,1.57.44.94.43,2.25,1.41,2.74-.83-3.34-2.21-6.53-3.43-9.74-4.27-11.27-10.77-22.48-17.07-33.21-.83-1.41-3.2-4.23-3.67-5.4-.38-.95.99-1.83-.59-1.38-2.89-5.09-5.91-10.09-8.71-15.24-.97-1.78-2.34-3.99-3.35-6.06s-1.55-4.3-2.85-6.19l.78-.58-1.22-.24c-1.92-6.05-4.8-11.91-6.15-18.13-.09-.4-.4-1.38.3-1.28,3.06,11.66,8.25,22.49,13.93,33.05,8.34,15.51,19.42,31.19,26.84,47.38,6.51,14.19,10.26,30.33,13.43,44.83l1.19,4.41c.24-3.03-.34-5.92-.73-8.89-.44-3.37-.97-7.03-1.78-10.48-.27-1.17-.96-2.86-1.41-4.03l.78-.57c-.51,0-.87-.2-1.1-.67-1.54-3.07-2.35-9.35-3.48-12.7-5.03-15-13.78-29.47-20.93-43.12s-15.15-26.78-19.66-41.37c.36,0,.56.36.73.64,2.47,4.03,4.02,9.98,6.06,14.37.97,2.08,2.16,4.16,3.21,6.22,7.33,14.44,16.26,28.06,23,42.81.69.1.4-.9.3-1.28-.62-2.35-2.85-6.99-3.95-9.41-1.28-2.82-3.08-5.48-4.21-8.38l.78-.96-1.17.4c-4.16-11-10.23-21.23-14.93-32.03-.93-2.15-2.79-6.02-3.38-8.06-.2-.69.23-1.4.17-1.51-.05-.09-.75-.16-1.03-.71-.86-1.69-1.88-4.54-2.63-6.42-4.46-11.26-8.08-22.62-11.4-34.18-.57-2-.92-4.06-1.38-6.09.39-.62.49.29.61.56.43.94.76,1.91,1.1,2.88,3.79,10.57,7.06,22.89,11.17,33.57.85,2.22,2.4,5.61,2.98,7.68.24.87-.12,1.74-.07,1.82.04.07.81.25,1.21.94,3.8,6.57,7.28,16.74,10.62,23.96,9.58,20.67,17.81,37.65,24.78,59.61.76,2.4,1.27,5.02,1.82,7.5l.77-.19c-1.02-2.61-1.11-5.45-1.66-8.16-.25-1.2-.82-2.58-1.04-3.35-.38-1.3-.5-2.33-.04-3.63l-1.1-.26c-3.89-16.3-10.46-31.7-17.07-47.03-.51-1.18-.86-1.59-1.17-2.31-1.25-2.85-2.19-6.37-3.48-9.01-.19-.39-2.85-2.77-.75-2.68,2.4,4.39,4.36,8.83,6.48,13.37,8.99,19.29,18.88,43.75,20.66,65.41.18,2.14-.03,1.43.43,3.1,1.21,4.37,1.96,9.5,2.29,14l.58-.97c-.5-4.46-1.33-8.92-1.79-13.39-.23-2.22-.23-1.25-.59-2.89-.33-1.5-.08-3.09-.29-4.44-1.65-10.48-4.37-22.34-7.62-32.45-2.88-8.95-7.15-17.37-10.33-26.21l1.15-.17c7.17,15.87,13.26,32.26,16.82,49.39,1.58,7.6,3.13,17.26,3.08,24.98,0,.54-.74.75.56.65.66-13.37-1.98-26.32-4.71-39.29l1.59.25c1.93,9.37,3.35,18.87,3.92,28.43.58-.08.65-1.7.73-2.21,1.2-8.2.6-20.19.06-28.65-.49-7.61-1.8-15.24-3.17-22.75l.8-.6c-.54.07-.65-.08-.85-.54-1.73-4.03-2.81-14.24-3.97-19.2-6.53-27.94-15.87-54.4-33.11-77.29-4.15-5.51-8.76-10.88-13.32-16.15-1.47-1.7-5.6-5.24-6.51-6.85-.44-.77-.44-1.34-.37-2.19-.08-.1-.69.25-.97.19-.73-.14-6.31-5.44-7.49-6.46-3.89-3.36-8.59-7.7-13.18-10.79-.61-.41-1.97-1.46-2.71-1.22l27.89,27.9c-1.25.83-1.56-.78-2.1-1.24-8.95-7.73-16.62-16.63-25.15-24.74Z"/></g></svg>